<?xml version="1.0" encoding="UTF-8"?>
<svg id="Objects" xmlns="http://www.w3.org/2000/svg" version="1.1" viewBox="0 0 1336.87 1336.87">
  <!-- Generator: Adobe Illustrator 29.7.1, SVG Export Plug-In . SVG Version: 2.1.1 Build 8)  -->
  <defs>
    <style>
      .st0 {
        fill: #ebe6d6;
      }
    </style>
  </defs>
  <path class="st0" d="M1180.46,50.93H156.41c-58.25,0-105.48,47.22-105.48,105.48v1024.05c0,58.26,47.23,105.48,105.48,105.48h1024.05c58.26,0,105.48-47.22,105.48-105.48V156.41c0-58.26-47.22-105.48-105.48-105.48ZM906.23,947.63l-45.37,45.37s-113.59,113.59-371.84-144.67c-258.26-258.25-144.67-371.84-144.67-371.84l45.37-45.37c24.42-24.43,64.03-24.43,88.45,0l73.85,73.85c15.33,15.32,15.33,40.16,0,55.48l-35.11,35.12c-11.41,11.41-13.1,29.34-3.97,42.63,15.06,21.92,42.31,57.57,85.47,100.73,43.17,43.17,78.82,70.42,100.74,85.48,13.29,9.13,31.22,7.44,42.63-3.97l35.11-35.12c15.33-15.32,40.17-15.32,55.49,0l73.84,73.84c24.43,24.44,24.43,64.05.01,88.47ZM801.19,534.96c-60.77-60.78-141.67-60.08-142.48-60.07-11,.2-20.11-8.54-20.33-19.54-.23-11,8.46-20.1,19.45-20.36,3.99-.09,98.4-1.44,171.58,71.74,78.21,78.21,71.99,168.88,71.69,172.7-.87,10.99-10.48,19.19-21.47,18.31-4.92-.39-9.29-2.53-12.53-5.77-3.97-3.98-6.25-9.59-5.79-15.63.23-3.39,4.47-76.79-60.12-141.38ZM801.92,663.27c-.26,11.01-9.4,19.74-20.42,19.48-10.98-.26-19.68-9.34-19.48-20.31,0-.89-.14-35.41-25.92-61.19l-.6-.6c-25.99-25.99-60.86-25.92-61.21-25.92-5.66.13-10.81-2.11-14.51-5.81-3.51-3.5-5.72-8.32-5.84-13.67-.26-11.02,8.52-20.17,19.54-20.42,2.1-.05,51.88-.77,90.24,37.6l.6.6c38.36,38.36,37.65,88.14,37.6,90.24ZM995.94,683.16c-.88,10.99-10.49,19.19-21.48,18.32-4.92-.39-9.29-2.54-12.52-5.78-3.98-3.98-6.26-9.6-5.8-15.65.05-.78,1.89-29.34-8.14-69.24-13.44-53.54-40.73-101.16-81.12-141.54-90.48-90.49-210.68-89.23-211.89-89.21-11,.22-20.12-8.52-20.36-19.53-.23-11,8.47-20.11,19.47-20.37,5.59-.13,138.1-2.02,241.01,100.88,109.94,109.95,101.25,236.78,100.83,242.12Z"/>
</svg>