<?xml version="1.0" encoding="UTF-8"?>
<svg id="_Слой_1" data-name="Слой_1" xmlns="http://www.w3.org/2000/svg" version="1.1" viewBox="0 0 424.67 419.16">
  <!-- Generator: Adobe Illustrator 29.7.1, SVG Export Plug-In . SVG Version: 2.1.1 Build 8)  -->
  <defs>
    <style>
      .st0 {
        fill: #ebe6d6;
      }

      .st1 {
        fill: #163e6b;
      }
    </style>
  </defs>
  <rect class="st0" x="15.84" y="13.08" width="392.99" height="392.99" rx="31.62" ry="31.62"/>
  <path class="st1" d="M339.59,87.55L72.55,191.61c-8.66,3.37-8.13,15.78.78,18.41l67.85,20.04,25.33,80.36c2.64,8.39,13.28,10.94,19.43,4.65l35.09-35.82,68.84,50.53c8.42,6.18,20.42,1.59,22.56-8.64l45.59-217.98c2.23-10.68-8.27-19.57-18.43-15.61h0ZM306.11,135.92l-124.03,109.69c-1.25,1.09-2.03,2.61-2.21,4.24l-4.78,42.45c-.15,1.39-2.09,1.57-2.5.24l-19.66-63.31c-.9-2.9.28-6.04,2.86-7.64l146.47-90.85c3.38-2.09,6.82,2.55,3.85,5.17h0Z"/>
</svg>