<?xml version="1.0" encoding="UTF-8"?>
<svg id="_Слой_1" data-name="Слой_1" xmlns="http://www.w3.org/2000/svg" version="1.1" viewBox="0 0 841.89 595.28">
  <!-- Generator: Adobe Illustrator 29.7.1, SVG Export Plug-In . SVG Version: 2.1.1 Build 8)  -->
  <defs>
    <style>
      .st0 {
        fill: #ebe6d6;
      }

      .st1 {
        fill: #d20a11;
      }

      .st2 {
        fill: #163e6c;
      }
    </style>
  </defs>
  <polygon class="st2" points="-1657.17 123.07 -1615.92 227.51 -1361.44 227.51 -1368.42 245.42 -1547.14 245.42 -1506.91 349.86 -1409.15 349.86 -1416.13 367.77 -1499.67 367.77 -1458.33 471.72 -1458.33 472.2 -1084.24 472.2 -1043.54 367.76 -1283.64 367.76 -1229.03 227.51 -1121.67 227.51 -1146.22 290.51 -1013.76 290.51 -948.5 123.07 -948.5 123.07 -1657.17 123.07"/>
  <polygon class="st1" points="-795.28 123.07 -754.03 227.51 -499.55 227.51 -506.53 245.42 -685.25 245.42 -645.02 349.86 -547.26 349.86 -554.24 367.77 -637.78 367.77 -596.44 471.72 -596.44 472.2 -222.35 472.2 -181.65 367.76 -421.75 367.76 -367.14 227.51 -259.78 227.51 -284.33 290.51 -151.87 290.51 -86.61 123.07 -86.61 123.07 -795.28 123.07"/>
  <polygon class="st0" points="66.61 123.07 107.86 227.51 362.34 227.51 355.36 245.42 176.63 245.42 216.87 349.86 314.63 349.86 307.65 367.77 224.11 367.77 265.45 471.72 265.45 472.2 639.54 472.2 680.24 367.76 440.14 367.76 494.75 227.51 602.11 227.51 577.56 290.51 710.02 290.51 775.28 123.07 775.28 123.07 66.61 123.07"/>
</svg>