<?xml version="1.0" encoding="UTF-8"?>
<svg id="_Слой_1" data-name="Слой_1" xmlns="http://www.w3.org/2000/svg" version="1.1" viewBox="0 0 16 16">
  <!-- Generator: Adobe Illustrator 29.8.3, SVG Export Plug-In . SVG Version: 2.1.1 Build 3)  -->
  <defs>
    <style>
      .st0, .st1 {
        fill: #ebe6d6;
      }

      .st1 {
        fill-rule: evenodd;
      }
    </style>
  </defs>
  <path class="st0" d="M15.5,1.94c.19.2.19.51,0,.71l-1.04,1.04-2-2,1.04-1.04c.2-.2.51-.2.71,0l1.29,1.29h0ZM13.75,4.4l-2-2-6.81,6.81c-.06.06-.1.12-.12.2l-.8,2.41c-.04.13.03.27.16.32.05.02.11.02.16,0l2.41-.81c.07-.02.14-.07.2-.12l6.81-6.81h0Z"/>
  <path class="st1" d="M1,13.5c0,.83.67,1.5,1.5,1.5h11c.83,0,1.5-.67,1.5-1.5v-6c0-.28-.22-.5-.5-.5s-.5.22-.5.5v6c0,.28-.22.5-.5.5H2.5c-.28,0-.5-.22-.5-.5V2.5c0-.28.22-.5.5-.5h6.5c.28,0,.5-.22.5-.5s-.22-.5-.5-.5H2.5c-.83,0-1.5.67-1.5,1.5v11Z"/>
</svg>