<?xml version="1.0" encoding="UTF-8"?>
<svg id="_Слой_1" xmlns="http://www.w3.org/2000/svg" version="1.1" viewBox="0 0 16 16">
  <!-- Generator: Adobe Illustrator 29.8.3, SVG Export Plug-In . SVG Version: 2.1.1 Build 3)  -->
  <defs>
    <style>
      .st0 {
        fill: #ebe6d6;
      }

      .st1 {
        fill: #d20a11;
      }
    </style>
  </defs>
  <path class="st1" d="M13.84,0H2.16C.97,0,0,.97,0,2.16v11.68c0,1.19.97,2.16,2.16,2.16h11.68c1.19,0,2.16-.97,2.16-2.16V2.16c0-1.19-.97-2.16-2.16-2.16ZM1.75,8c0-.23.19-.42.42-.42h7.32l-1.79-1.78c-.16-.17-.16-.43,0-.6.17-.16.43-.16.6,0l2.5,2.5c.08.08.12.19.12.3s-.04.22-.12.3l-2.5,2.5c-.17.16-.43.16-.6,0-.16-.17-.16-.43,0-.6l1.79-1.78H2.17c-.23,0-.42-.19-.42-.42ZM14.25,11.75c0,.69-.56,1.25-1.25,1.25h-6.67c-.69,0-1.25-.56-1.25-1.25v-1.67c0-.23.19-.41.42-.41s.42.18.42.41v1.67c0,.23.18.42.41.42h6.67c.23,0,.42-.19.42-.42v-7.5c0-.23-.19-.42-.42-.42h-6.67c-.23,0-.41.19-.41.42v1.67c0,.23-.19.41-.42.41s-.42-.18-.42-.41v-1.67c0-.69.56-1.25,1.25-1.25h6.67c.69,0,1.25.56,1.25,1.25v7.5Z"/>
  <path class="st0" d="M10.92,8c0,.11-.04.22-.12.3l-2.5,2.5c-.17.16-.43.16-.6,0-.16-.17-.16-.43,0-.6l1.79-1.78H2.17c-.23,0-.42-.19-.42-.42s.19-.42.42-.42h7.32l-1.79-1.78c-.16-.17-.16-.43,0-.6.17-.16.43-.16.6,0l2.5,2.5c.08.08.12.19.12.3Z"/>
  <path class="st0" d="M14.25,4.25v7.5c0,.69-.56,1.25-1.25,1.25h-6.67c-.69,0-1.25-.56-1.25-1.25v-1.67c0-.23.19-.41.42-.41s.42.18.42.41v1.67c0,.23.18.42.41.42h6.67c.23,0,.42-.19.42-.42v-7.5c0-.23-.19-.42-.42-.42h-6.67c-.23,0-.41.19-.41.42v1.67c0,.23-.19.41-.42.41s-.42-.18-.42-.41v-1.67c0-.69.56-1.25,1.25-1.25h6.67c.69,0,1.25.56,1.25,1.25Z"/>
</svg>